<?xml version="1.0" encoding="UTF-8"?>
<svg xmlns="http://www.w3.org/2000/svg" xmlns:xlink="http://www.w3.org/1999/xlink" viewBox="0 0 100 100" width="100px" height="100px">
<g id="surface65506">
<path style=" stroke:none;fill-rule:nonzero;fill:rgb(20.392157%,59.607846%,85.882354%);fill-opacity:1;" d="M 62 48 C 56.484375 48 52 43.515625 52 38 L 52 14 C 52 8.484375 56.484375 4 62 4 C 67.515625 4 72 8.484375 72 14 L 72 38 C 72 43.515625 67.515625 48 62 48 Z M 86 48 L 78 48 C 76.894531 48 76 47.105469 76 46 L 76 38 C 76 32.484375 80.484375 28 86 28 C 91.515625 28 96 32.484375 96 38 C 96 43.515625 91.515625 48 86 48 Z M 38 48 L 14 48 C 8.484375 48 4 43.515625 4 38 C 4 32.484375 8.484375 28 14 28 L 38 28 C 43.515625 28 48 32.484375 48 38 C 48 43.515625 43.515625 48 38 48 Z M 46 24 L 38 24 C 32.484375 24 28 19.515625 28 14 C 28 8.484375 32.484375 4 38 4 C 43.515625 4 48 8.484375 48 14 L 48 22 C 48 23.105469 47.105469 24 46 24 Z M 38 96 C 32.484375 96 28 91.515625 28 86 L 28 62 C 28 56.484375 32.484375 52 38 52 C 43.515625 52 48 56.484375 48 62 L 48 86 C 48 91.515625 43.515625 96 38 96 Z M 14 72 C 8.484375 72 4 67.515625 4 62 C 4 56.484375 8.484375 52 14 52 L 22 52 C 23.105469 52 24 52.894531 24 54 L 24 62 C 24 67.515625 19.515625 72 14 72 Z M 86 72 L 62 72 C 56.484375 72 52 67.515625 52 62 C 52 56.484375 56.484375 52 62 52 L 86 52 C 91.515625 52 96 56.484375 96 62 C 96 67.515625 91.515625 72 86 72 Z M 62 96 C 56.484375 96 52 91.515625 52 86 L 52 78 C 52 76.894531 52.894531 76 54 76 L 62 76 C 67.515625 76 72 80.484375 72 86 C 72 91.515625 67.515625 96 62 96 Z M 62 96 "/>
</g>
</svg>
